<?xml version="1.0" standalone="no"?>
<!DOCTYPE svg PUBLIC "-//W3C//DTD SVG 20010904//EN"
 "http://www.w3.org/TR/2001/REC-SVG-20010904/DTD/svg10.dtd">
<svg version="1.0" xmlns="http://www.w3.org/2000/svg"
 width="512.000000pt" height="512.000000pt" viewBox="0 0 512.000000 512.000000"
 preserveAspectRatio="xMidYMid meet">

<g transform="translate(0.000000,512.000000) scale(0.100000,-0.100000)"
fill="#000000" stroke="none">
<path d="M1634 5002 c-123 -43 -249 -151 -346 -297 -78 -118 -450 -797 -441
-805 22 -22 1039 -578 1044 -572 4 4 159 277 344 607 441 785 417 745 510 840
107 110 206 172 338 212 27 8 47 16 45 17 -1 2 -327 6 -723 9 -675 6 -723 5
-771 -11z"/>
<path d="M3224 4896 c-197 -45 -335 -149 -469 -352 -85 -128 -157 -256 -151
-268 2 -6 92 -166 199 -355 l196 -345 -92 -59 c-51 -32 -118 -76 -150 -96
l-58 -38 332 -6 c183 -4 445 -7 583 -7 l251 0 235 433 c129 237 250 460 268
494 l33 62 -98 -41 c-54 -22 -138 -58 -186 -79 l-88 -38 -193 292 c-199 302
-241 352 -324 389 -61 26 -203 33 -288 14z"/>
<path d="M180 3430 l-145 -5 153 -118 c83 -65 152 -123 152 -128 0 -6 -70
-145 -156 -309 -86 -165 -162 -321 -171 -347 -37 -119 13 -265 133 -393 109
-116 205 -171 351 -204 83 -18 269 -36 390 -36 l81 0 201 328 c110 180 206
336 214 346 13 18 21 15 166 -63 84 -46 154 -81 156 -79 1 1 -120 230 -270
508 l-273 505 -419 0 c-230 1 -483 -2 -563 -5z"/>
<path d="M4025 3125 c-316 -199 -500 -319 -499 -329 1 -12 466 -774 726 -1190
109 -174 158 -327 158 -491 0 -46 -5 -107 -11 -135 -6 -28 -9 -53 -6 -56 2 -3
162 273 354 613 250 441 354 633 363 672 25 106 -3 255 -76 411 -43 90 -491
821 -503 819 -3 0 -231 -141 -506 -314z"/>
<path d="M2901 1585 c-150 -264 -280 -491 -288 -505 -14 -25 -7 -38 277 -485
161 -253 298 -466 305 -473 10 -11 16 22 30 165 10 98 21 187 26 199 7 19 24
21 316 43 361 26 404 32 466 61 121 57 212 213 238 410 12 89 2 183 -32 284
-25 76 -113 251 -177 353 l-49 77 -405 -3 -406 -3 -7 89 c-3 48 -9 129 -13
178 l-7 90 -274 -480z"/>
<path d="M90 1990 c7 -14 161 -299 342 -635 363 -672 362 -671 493 -736 150
-73 331 -91 865 -87 l365 3 3 603 2 602 -387 1 c-214 0 -579 4 -813 9 -471 9
-475 9 -627 80 -91 43 -135 72 -207 139 -36 34 -45 40 -36 21z"/>
</g>
</svg>
